<?xml version="1.0" standalone="no"?>
<!DOCTYPE svg PUBLIC "-//W3C//DTD SVG 20010904//EN"
 "http://www.w3.org/TR/2001/REC-SVG-20010904/DTD/svg10.dtd">
<svg version="1.0" xmlns="http://www.w3.org/2000/svg"
 width="200.000000pt" height="200.000000pt" viewBox="0 0 200.000000 200.000000"
 preserveAspectRatio="xMidYMid meet">
<metadata>
Created by potrace 1.14, written by Peter Selinger 2001-2017
</metadata>
<g transform="translate(0.000000,200.000000) scale(0.100000,-0.100000)"
fill="#000000" stroke="none">
<path d="M1040 1649 c-201 -54 -387 -105 -415 -113 -45 -13 -7 -14 375 -13
l425 2 0 113 c1 71 -3 112 -10 111 -5 0 -174 -45 -375 -100z"/>
<path d="M607 1312 c-9 -2 -17 -11 -18 -20 -1 -17 0 -164 1 -192 0 -13 52 -15
417 -15 l418 0 0 113 c1 61 -2 112 -5 113 -26 2 -800 3 -813 1z"/>
<path d="M589 868 c-1 -36 -1 -106 0 -160 l1 -43 383 2 c210 1 398 2 418 2
l35 1 0 112 -1 113 -418 0 -417 0 -1 -27z"/>
<path d="M589 385 c-1 -92 0 -127 6 -133 3 -3 748 -5 815 -3 13 1 15 20 15
111 0 61 -2 111 -5 111 -3 1 -191 2 -417 3 l-413 1 -1 -90z"/>
</g>
</svg>
